<mxfile host="app.diagrams.net" modified="2023-08-10T00:38:25.949Z" agent="Mozilla/5.0 (Windows NT 10.0; Win64; x64) AppleWebKit/537.36 (KHTML, like Gecko) Chrome/115.0.0.0 Safari/537.36" etag="wvlIRyIqvV6CcECh6pi4" version="21.6.6" type="github" pages="2">
  <diagram name="Modelado estrategico" id="flNbDiV5V6uTlgTB446z">
    <mxGraphModel dx="1050" dy="534" grid="1" gridSize="10" guides="1" tooltips="1" connect="1" arrows="1" fold="1" page="1" pageScale="1" pageWidth="850" pageHeight="1100" math="0" shadow="0">
      <root>
        <mxCell id="0" />
        <mxCell id="1" parent="0" />
        <mxCell id="RbZA3ko83CKxGorL-d6X-1" value="Tienda Online" style="ellipse;whiteSpace=wrap;html=1;fillColor=#d5e8d4;strokeColor=#82b366;" parent="1" vertex="1">
          <mxGeometry x="140" y="30" width="230" height="100" as="geometry" />
        </mxCell>
        <mxCell id="RbZA3ko83CKxGorL-d6X-2" value="&lt;b&gt;Big Idea&lt;br&gt;Corresponde a la vista general relacionado con la Tienda Online.&lt;br&gt;&lt;/b&gt;" style="rounded=0;whiteSpace=wrap;html=1;fillColor=#d5e8d4;strokeColor=#82b366;" parent="1" vertex="1">
          <mxGeometry x="440" y="20" width="280" height="110" as="geometry" />
        </mxCell>
        <mxCell id="RbZA3ko83CKxGorL-d6X-3" value="Carrito de compras" style="ellipse;whiteSpace=wrap;html=1;" parent="1" vertex="1">
          <mxGeometry x="330" y="470" width="120" height="80" as="geometry" />
        </mxCell>
        <mxCell id="RbZA3ko83CKxGorL-d6X-4" value="Notificaciones" style="ellipse;whiteSpace=wrap;html=1;" parent="1" vertex="1">
          <mxGeometry x="950" y="210" width="120" height="80" as="geometry" />
        </mxCell>
        <mxCell id="RbZA3ko83CKxGorL-d6X-5" value="Servicio al cliente" style="ellipse;whiteSpace=wrap;html=1;" parent="1" vertex="1">
          <mxGeometry x="20" y="340" width="120" height="80" as="geometry" />
        </mxCell>
        <mxCell id="RbZA3ko83CKxGorL-d6X-6" value="Información de la tienda" style="ellipse;whiteSpace=wrap;html=1;" parent="1" vertex="1">
          <mxGeometry x="720" y="710" width="120" height="80" as="geometry" />
        </mxCell>
        <mxCell id="RbZA3ko83CKxGorL-d6X-36" style="edgeStyle=orthogonalEdgeStyle;rounded=0;orthogonalLoop=1;jettySize=auto;html=1;exitX=1;exitY=0.5;exitDx=0;exitDy=0;" parent="1" source="RbZA3ko83CKxGorL-d6X-7" target="RbZA3ko83CKxGorL-d6X-10" edge="1">
          <mxGeometry relative="1" as="geometry" />
        </mxCell>
        <mxCell id="RbZA3ko83CKxGorL-d6X-7" value="Compras" style="ellipse;whiteSpace=wrap;html=1;" parent="1" vertex="1">
          <mxGeometry x="770" y="340" width="120" height="80" as="geometry" />
        </mxCell>
        <mxCell id="h234wWG-kG2KsKS7X-5s-13" style="edgeStyle=orthogonalEdgeStyle;rounded=0;orthogonalLoop=1;jettySize=auto;html=1;exitX=0;exitY=0.5;exitDx=0;exitDy=0;entryX=1;entryY=0.5;entryDx=0;entryDy=0;fillColor=#f8cecc;strokeColor=#b85450;" parent="1" source="RbZA3ko83CKxGorL-d6X-8" target="RbZA3ko83CKxGorL-d6X-4" edge="1">
          <mxGeometry relative="1" as="geometry" />
        </mxCell>
        <mxCell id="RbZA3ko83CKxGorL-d6X-8" value="Usuarios" style="ellipse;whiteSpace=wrap;html=1;" parent="1" vertex="1">
          <mxGeometry x="1230" y="250" width="120" height="80" as="geometry" />
        </mxCell>
        <mxCell id="RbZA3ko83CKxGorL-d6X-9" value="Clientes" style="ellipse;whiteSpace=wrap;html=1;" parent="1" vertex="1">
          <mxGeometry x="270" y="340" width="120" height="80" as="geometry" />
        </mxCell>
        <mxCell id="h234wWG-kG2KsKS7X-5s-4" style="edgeStyle=orthogonalEdgeStyle;rounded=0;orthogonalLoop=1;jettySize=auto;html=1;exitX=0;exitY=0;exitDx=0;exitDy=0;fillColor=#f8cecc;strokeColor=#b85450;" parent="1" source="RbZA3ko83CKxGorL-d6X-10" target="RbZA3ko83CKxGorL-d6X-4" edge="1">
          <mxGeometry relative="1" as="geometry" />
        </mxCell>
        <mxCell id="RbZA3ko83CKxGorL-d6X-10" value="Pagos" style="ellipse;whiteSpace=wrap;html=1;" parent="1" vertex="1">
          <mxGeometry x="1040" y="340" width="120" height="80" as="geometry" />
        </mxCell>
        <mxCell id="RbZA3ko83CKxGorL-d6X-33" style="edgeStyle=orthogonalEdgeStyle;rounded=0;orthogonalLoop=1;jettySize=auto;html=1;exitX=1;exitY=0.5;exitDx=0;exitDy=0;entryX=0;entryY=0.5;entryDx=0;entryDy=0;" parent="1" source="RbZA3ko83CKxGorL-d6X-11" target="RbZA3ko83CKxGorL-d6X-7" edge="1">
          <mxGeometry relative="1" as="geometry" />
        </mxCell>
        <mxCell id="RbZA3ko83CKxGorL-d6X-35" value="Conforms" style="edgeLabel;html=1;align=center;verticalAlign=middle;resizable=0;points=[];" parent="RbZA3ko83CKxGorL-d6X-33" vertex="1" connectable="0">
          <mxGeometry x="-0.3215" y="5" relative="1" as="geometry">
            <mxPoint x="16" y="-3" as="offset" />
          </mxGeometry>
        </mxCell>
        <mxCell id="h234wWG-kG2KsKS7X-5s-2" style="edgeStyle=orthogonalEdgeStyle;rounded=0;orthogonalLoop=1;jettySize=auto;html=1;exitX=1;exitY=0;exitDx=0;exitDy=0;entryX=0.5;entryY=0;entryDx=0;entryDy=0;fillColor=#f8cecc;strokeColor=#b85450;" parent="1" source="RbZA3ko83CKxGorL-d6X-11" target="RbZA3ko83CKxGorL-d6X-4" edge="1">
          <mxGeometry relative="1" as="geometry" />
        </mxCell>
        <mxCell id="RbZA3ko83CKxGorL-d6X-11" value="Pedidos Cliente" style="ellipse;whiteSpace=wrap;html=1;" parent="1" vertex="1">
          <mxGeometry x="515" y="340" width="120" height="80" as="geometry" />
        </mxCell>
        <mxCell id="RbZA3ko83CKxGorL-d6X-13" value="Pedidos Proveedores" style="ellipse;whiteSpace=wrap;html=1;" parent="1" vertex="1">
          <mxGeometry x="769" y="590" width="120" height="80" as="geometry" />
        </mxCell>
        <mxCell id="h234wWG-kG2KsKS7X-5s-9" style="edgeStyle=orthogonalEdgeStyle;rounded=0;orthogonalLoop=1;jettySize=auto;html=1;exitX=1;exitY=1;exitDx=0;exitDy=0;entryX=0;entryY=0.5;entryDx=0;entryDy=0;fillColor=#f8cecc;strokeColor=#b85450;" parent="1" source="RbZA3ko83CKxGorL-d6X-14" target="RbZA3ko83CKxGorL-d6X-13" edge="1">
          <mxGeometry relative="1" as="geometry" />
        </mxCell>
        <mxCell id="RbZA3ko83CKxGorL-d6X-14" value="Productos" style="ellipse;whiteSpace=wrap;html=1;" parent="1" vertex="1">
          <mxGeometry x="515" y="470" width="120" height="80" as="geometry" />
        </mxCell>
        <mxCell id="RbZA3ko83CKxGorL-d6X-15" value="Inventario" style="ellipse;whiteSpace=wrap;html=1;" parent="1" vertex="1">
          <mxGeometry x="765" y="470" width="120" height="80" as="geometry" />
        </mxCell>
        <mxCell id="RbZA3ko83CKxGorL-d6X-16" value="Catálogos" style="ellipse;whiteSpace=wrap;html=1;" parent="1" vertex="1">
          <mxGeometry x="330" y="590" width="120" height="80" as="geometry" />
        </mxCell>
        <mxCell id="h234wWG-kG2KsKS7X-5s-5" style="edgeStyle=orthogonalEdgeStyle;rounded=0;orthogonalLoop=1;jettySize=auto;html=1;exitX=0.5;exitY=1;exitDx=0;exitDy=0;entryX=1;entryY=0;entryDx=0;entryDy=0;fillColor=#f8cecc;strokeColor=#b85450;" parent="1" source="RbZA3ko83CKxGorL-d6X-17" target="RbZA3ko83CKxGorL-d6X-4" edge="1">
          <mxGeometry relative="1" as="geometry">
            <Array as="points">
              <mxPoint x="390" y="790" />
              <mxPoint x="1190" y="790" />
              <mxPoint x="1190" y="222" />
            </Array>
          </mxGeometry>
        </mxCell>
        <mxCell id="RbZA3ko83CKxGorL-d6X-17" value="Ofertas" style="ellipse;whiteSpace=wrap;html=1;" parent="1" vertex="1">
          <mxGeometry x="330" y="690" width="120" height="80" as="geometry" />
        </mxCell>
        <mxCell id="RbZA3ko83CKxGorL-d6X-18" value="Seguridad" style="ellipse;whiteSpace=wrap;html=1;" parent="1" vertex="1">
          <mxGeometry x="882" y="700" width="120" height="80" as="geometry" />
        </mxCell>
        <mxCell id="RbZA3ko83CKxGorL-d6X-19" value="Logística" style="ellipse;whiteSpace=wrap;html=1;" parent="1" vertex="1">
          <mxGeometry x="515" y="170" width="120" height="80" as="geometry" />
        </mxCell>
        <mxCell id="RbZA3ko83CKxGorL-d6X-22" style="edgeStyle=orthogonalEdgeStyle;rounded=0;orthogonalLoop=1;jettySize=auto;html=1;exitX=1;exitY=0.5;exitDx=0;exitDy=0;entryX=0;entryY=1;entryDx=0;entryDy=0;" parent="1" source="RbZA3ko83CKxGorL-d6X-21" target="RbZA3ko83CKxGorL-d6X-14" edge="1">
          <mxGeometry relative="1" as="geometry">
            <mxPoint x="470" y="630" as="targetPoint" />
          </mxGeometry>
        </mxCell>
        <mxCell id="RbZA3ko83CKxGorL-d6X-21" value="A&lt;br&gt;C&lt;br&gt;L" style="rounded=0;whiteSpace=wrap;html=1;" parent="1" vertex="1">
          <mxGeometry x="440" y="600" width="20" height="60" as="geometry" />
        </mxCell>
        <mxCell id="RbZA3ko83CKxGorL-d6X-26" style="edgeStyle=orthogonalEdgeStyle;rounded=0;orthogonalLoop=1;jettySize=auto;html=1;exitX=1;exitY=0.5;exitDx=0;exitDy=0;entryX=0.5;entryY=1;entryDx=0;entryDy=0;" parent="1" source="RbZA3ko83CKxGorL-d6X-23" target="RbZA3ko83CKxGorL-d6X-14" edge="1">
          <mxGeometry relative="1" as="geometry" />
        </mxCell>
        <mxCell id="RbZA3ko83CKxGorL-d6X-23" value="A&lt;br&gt;C&lt;br&gt;L" style="rounded=0;whiteSpace=wrap;html=1;" parent="1" vertex="1">
          <mxGeometry x="440" y="700" width="20" height="60" as="geometry" />
        </mxCell>
        <mxCell id="RbZA3ko83CKxGorL-d6X-28" style="edgeStyle=orthogonalEdgeStyle;rounded=0;orthogonalLoop=1;jettySize=auto;html=1;exitX=0;exitY=0.5;exitDx=0;exitDy=0;entryX=1;entryY=0.5;entryDx=0;entryDy=0;" parent="1" source="RbZA3ko83CKxGorL-d6X-27" target="RbZA3ko83CKxGorL-d6X-14" edge="1">
          <mxGeometry relative="1" as="geometry" />
        </mxCell>
        <mxCell id="RbZA3ko83CKxGorL-d6X-27" value="A&lt;br&gt;C&lt;br&gt;L" style="rounded=0;whiteSpace=wrap;html=1;" parent="1" vertex="1">
          <mxGeometry x="750" y="480" width="20" height="60" as="geometry" />
        </mxCell>
        <mxCell id="RbZA3ko83CKxGorL-d6X-30" style="edgeStyle=orthogonalEdgeStyle;rounded=0;orthogonalLoop=1;jettySize=auto;html=1;exitX=1;exitY=0.5;exitDx=0;exitDy=0;entryX=0;entryY=0.5;entryDx=0;entryDy=0;" parent="1" source="RbZA3ko83CKxGorL-d6X-29" target="RbZA3ko83CKxGorL-d6X-14" edge="1">
          <mxGeometry relative="1" as="geometry" />
        </mxCell>
        <mxCell id="h234wWG-kG2KsKS7X-5s-1" style="edgeStyle=orthogonalEdgeStyle;rounded=0;orthogonalLoop=1;jettySize=auto;html=1;exitX=1;exitY=0.5;exitDx=0;exitDy=0;entryX=1;entryY=0.5;entryDx=0;entryDy=0;fillColor=#f8cecc;strokeColor=#b85450;" parent="1" source="RbZA3ko83CKxGorL-d6X-29" target="RbZA3ko83CKxGorL-d6X-4" edge="1">
          <mxGeometry relative="1" as="geometry">
            <Array as="points">
              <mxPoint x="1170" y="510" />
              <mxPoint x="1170" y="250" />
            </Array>
          </mxGeometry>
        </mxCell>
        <mxCell id="RbZA3ko83CKxGorL-d6X-29" value="A&lt;br&gt;C&lt;br&gt;L" style="rounded=0;whiteSpace=wrap;html=1;" parent="1" vertex="1">
          <mxGeometry x="440" y="480" width="20" height="60" as="geometry" />
        </mxCell>
        <mxCell id="RbZA3ko83CKxGorL-d6X-32" style="edgeStyle=orthogonalEdgeStyle;rounded=0;orthogonalLoop=1;jettySize=auto;html=1;exitX=0.5;exitY=1;exitDx=0;exitDy=0;" parent="1" source="RbZA3ko83CKxGorL-d6X-31" target="RbZA3ko83CKxGorL-d6X-14" edge="1">
          <mxGeometry relative="1" as="geometry" />
        </mxCell>
        <mxCell id="RbZA3ko83CKxGorL-d6X-31" value="A&amp;nbsp; C&amp;nbsp; L" style="rounded=0;whiteSpace=wrap;html=1;" parent="1" vertex="1">
          <mxGeometry x="540" y="413" width="70" height="20" as="geometry" />
        </mxCell>
        <mxCell id="RbZA3ko83CKxGorL-d6X-34" value="Puntos de distribución" style="ellipse;whiteSpace=wrap;html=1;" parent="1" vertex="1">
          <mxGeometry x="340" y="170" width="120" height="80" as="geometry" />
        </mxCell>
        <mxCell id="RbZA3ko83CKxGorL-d6X-37" value="PartnerShip" style="text;html=1;align=center;verticalAlign=middle;resizable=0;points=[];autosize=1;strokeColor=none;fillColor=none;" parent="1" vertex="1">
          <mxGeometry x="914" y="354" width="90" height="30" as="geometry" />
        </mxCell>
        <mxCell id="RbZA3ko83CKxGorL-d6X-38" value="upstream - provider&lt;br&gt;downstream - consumer" style="text;html=1;align=center;verticalAlign=middle;resizable=0;points=[];autosize=1;strokeColor=none;fillColor=none;" parent="1" vertex="1">
          <mxGeometry x="720" y="43" width="150" height="40" as="geometry" />
        </mxCell>
        <mxCell id="RbZA3ko83CKxGorL-d6X-39" value="D" style="text;html=1;align=center;verticalAlign=middle;resizable=0;points=[];autosize=1;strokeColor=none;fillColor=none;" parent="1" vertex="1">
          <mxGeometry x="629" y="354" width="30" height="30" as="geometry" />
        </mxCell>
        <mxCell id="RbZA3ko83CKxGorL-d6X-40" value="U" style="text;html=1;align=center;verticalAlign=middle;resizable=0;points=[];autosize=1;strokeColor=none;fillColor=none;" parent="1" vertex="1">
          <mxGeometry x="739" y="355" width="30" height="30" as="geometry" />
        </mxCell>
        <mxCell id="RbZA3ko83CKxGorL-d6X-41" value="D" style="text;html=1;align=center;verticalAlign=middle;resizable=0;points=[];autosize=1;strokeColor=none;fillColor=none;" parent="1" vertex="1">
          <mxGeometry x="882" y="351" width="30" height="30" as="geometry" />
        </mxCell>
        <mxCell id="RbZA3ko83CKxGorL-d6X-42" value="U" style="text;html=1;align=center;verticalAlign=middle;resizable=0;points=[];autosize=1;strokeColor=none;fillColor=none;" parent="1" vertex="1">
          <mxGeometry x="1010" y="351" width="30" height="30" as="geometry" />
        </mxCell>
        <mxCell id="RbZA3ko83CKxGorL-d6X-44" style="edgeStyle=orthogonalEdgeStyle;rounded=0;orthogonalLoop=1;jettySize=auto;html=1;exitX=0;exitY=0.5;exitDx=0;exitDy=0;entryX=1;entryY=0.5;entryDx=0;entryDy=0;" parent="1" source="RbZA3ko83CKxGorL-d6X-43" target="RbZA3ko83CKxGorL-d6X-9" edge="1">
          <mxGeometry relative="1" as="geometry" />
        </mxCell>
        <mxCell id="RbZA3ko83CKxGorL-d6X-43" value="A&lt;br&gt;C&lt;br&gt;L" style="rounded=0;whiteSpace=wrap;html=1;" parent="1" vertex="1">
          <mxGeometry x="500" y="350" width="20" height="60" as="geometry" />
        </mxCell>
        <mxCell id="RbZA3ko83CKxGorL-d6X-46" style="edgeStyle=orthogonalEdgeStyle;rounded=0;orthogonalLoop=1;jettySize=auto;html=1;exitX=0.5;exitY=0;exitDx=0;exitDy=0;entryX=0.5;entryY=0;entryDx=0;entryDy=0;" parent="1" source="RbZA3ko83CKxGorL-d6X-45" target="RbZA3ko83CKxGorL-d6X-9" edge="1">
          <mxGeometry relative="1" as="geometry" />
        </mxCell>
        <mxCell id="RbZA3ko83CKxGorL-d6X-45" value="A&amp;nbsp; C&amp;nbsp; L" style="rounded=0;whiteSpace=wrap;html=1;" parent="1" vertex="1">
          <mxGeometry x="795" y="330" width="70" height="20" as="geometry" />
        </mxCell>
        <mxCell id="RbZA3ko83CKxGorL-d6X-53" style="edgeStyle=orthogonalEdgeStyle;rounded=0;orthogonalLoop=1;jettySize=auto;html=1;exitX=1;exitY=0.5;exitDx=0;exitDy=0;" parent="1" source="RbZA3ko83CKxGorL-d6X-52" target="RbZA3ko83CKxGorL-d6X-9" edge="1">
          <mxGeometry relative="1" as="geometry" />
        </mxCell>
        <mxCell id="RbZA3ko83CKxGorL-d6X-52" value="A&lt;br&gt;C&lt;br&gt;L" style="rounded=0;whiteSpace=wrap;html=1;" parent="1" vertex="1">
          <mxGeometry x="130" y="350" width="20" height="60" as="geometry" />
        </mxCell>
        <mxCell id="RbZA3ko83CKxGorL-d6X-55" style="edgeStyle=orthogonalEdgeStyle;rounded=0;orthogonalLoop=1;jettySize=auto;html=1;exitX=0.5;exitY=1;exitDx=0;exitDy=0;entryX=0.5;entryY=0;entryDx=0;entryDy=0;" parent="1" target="RbZA3ko83CKxGorL-d6X-11" edge="1">
          <mxGeometry relative="1" as="geometry">
            <mxPoint x="575" y="260.0000000000001" as="sourcePoint" />
          </mxGeometry>
        </mxCell>
        <mxCell id="RbZA3ko83CKxGorL-d6X-58" value="Conforms" style="edgeLabel;html=1;align=center;verticalAlign=middle;resizable=0;points=[];" parent="1" vertex="1" connectable="0">
          <mxGeometry x="575" y="280" as="geometry" />
        </mxCell>
        <mxCell id="RbZA3ko83CKxGorL-d6X-60" style="edgeStyle=orthogonalEdgeStyle;rounded=0;orthogonalLoop=1;jettySize=auto;html=1;exitX=0.5;exitY=0;exitDx=0;exitDy=0;entryX=0.5;entryY=1;entryDx=0;entryDy=0;" parent="1" source="RbZA3ko83CKxGorL-d6X-59" target="RbZA3ko83CKxGorL-d6X-34" edge="1">
          <mxGeometry relative="1" as="geometry" />
        </mxCell>
        <mxCell id="RbZA3ko83CKxGorL-d6X-59" value="A&amp;nbsp; C&amp;nbsp; L" style="rounded=0;whiteSpace=wrap;html=1;" parent="1" vertex="1">
          <mxGeometry x="505" y="330" width="70" height="20" as="geometry" />
        </mxCell>
        <mxCell id="h234wWG-kG2KsKS7X-5s-12" value="" style="edgeStyle=orthogonalEdgeStyle;rounded=0;orthogonalLoop=1;jettySize=auto;html=1;fillColor=#f8cecc;strokeColor=#b85450;" parent="1" source="h234wWG-kG2KsKS7X-5s-8" target="RbZA3ko83CKxGorL-d6X-13" edge="1">
          <mxGeometry relative="1" as="geometry" />
        </mxCell>
        <mxCell id="h234wWG-kG2KsKS7X-5s-8" value="Proveedor" style="ellipse;whiteSpace=wrap;html=1;" parent="1" vertex="1">
          <mxGeometry x="950" y="590" width="120" height="80" as="geometry" />
        </mxCell>
      </root>
    </mxGraphModel>
  </diagram>
  <diagram id="DFVG8-ijzhwW2Y-Y1Jel" name="Contexto Clientes (Modelo dominio clientes)">
    <mxGraphModel dx="1050" dy="534" grid="1" gridSize="10" guides="1" tooltips="1" connect="1" arrows="1" fold="1" page="1" pageScale="1" pageWidth="850" pageHeight="1100" math="0" shadow="0">
      <root>
        <mxCell id="0" />
        <mxCell id="1" parent="0" />
        <mxCell id="BIQeDoIDryCZM2HBSt0U-2" value="Cliente" style="rounded=0;whiteSpace=wrap;html=1;" vertex="1" parent="1">
          <mxGeometry x="535" y="230" width="120" height="60" as="geometry" />
        </mxCell>
        <mxCell id="BIQeDoIDryCZM2HBSt0U-3" value="TipoIdentificacion" style="rounded=0;whiteSpace=wrap;html=1;" vertex="1" parent="1">
          <mxGeometry x="535" y="50" width="120" height="60" as="geometry" />
        </mxCell>
        <mxCell id="BIQeDoIDryCZM2HBSt0U-5" value="" style="endArrow=none;html=1;rounded=0;entryX=0.5;entryY=1;entryDx=0;entryDy=0;exitX=0.5;exitY=0;exitDx=0;exitDy=0;" edge="1" parent="1" source="BIQeDoIDryCZM2HBSt0U-2" target="BIQeDoIDryCZM2HBSt0U-3">
          <mxGeometry width="50" height="50" relative="1" as="geometry">
            <mxPoint x="570" y="300" as="sourcePoint" />
            <mxPoint x="620" y="250" as="targetPoint" />
          </mxGeometry>
        </mxCell>
        <mxCell id="BIQeDoIDryCZM2HBSt0U-6" value="" style="endArrow=classic;html=1;rounded=0;" edge="1" parent="1">
          <mxGeometry width="50" height="50" relative="1" as="geometry">
            <mxPoint x="550" y="150" as="sourcePoint" />
            <mxPoint x="550" y="180" as="targetPoint" />
          </mxGeometry>
        </mxCell>
        <mxCell id="BIQeDoIDryCZM2HBSt0U-7" value="está" style="text;html=1;align=center;verticalAlign=middle;resizable=0;points=[];autosize=1;strokeColor=none;fillColor=none;" vertex="1" parent="1">
          <mxGeometry x="525" y="176" width="50" height="30" as="geometry" />
        </mxCell>
        <mxCell id="BIQeDoIDryCZM2HBSt0U-11" value="" style="endArrow=classic;html=1;rounded=0;" edge="1" parent="1">
          <mxGeometry width="50" height="50" relative="1" as="geometry">
            <mxPoint x="620" y="176" as="sourcePoint" />
            <mxPoint x="620" y="146" as="targetPoint" />
          </mxGeometry>
        </mxCell>
        <mxCell id="BIQeDoIDryCZM2HBSt0U-13" value="Tiene" style="text;html=1;align=center;verticalAlign=middle;resizable=0;points=[];autosize=1;strokeColor=none;fillColor=none;" vertex="1" parent="1">
          <mxGeometry x="595" y="176" width="50" height="30" as="geometry" />
        </mxCell>
        <mxCell id="BIQeDoIDryCZM2HBSt0U-14" value="&lt;font style=&quot;font-size: 14px;&quot;&gt;0...*&lt;/font&gt;" style="text;html=1;align=center;verticalAlign=middle;resizable=0;points=[];autosize=1;strokeColor=none;fillColor=none;" vertex="1" parent="1">
          <mxGeometry x="549" y="206" width="50" height="30" as="geometry" />
        </mxCell>
        <mxCell id="BIQeDoIDryCZM2HBSt0U-15" value="&lt;font style=&quot;font-size: 14px;&quot;&gt;1&lt;/font&gt;" style="text;html=1;align=center;verticalAlign=middle;resizable=0;points=[];autosize=1;strokeColor=none;fillColor=none;" vertex="1" parent="1">
          <mxGeometry x="595" y="108" width="30" height="30" as="geometry" />
        </mxCell>
        <mxCell id="EFzE8TT-wfRA_M-12pq5-1" value="Direccion" style="rounded=0;whiteSpace=wrap;html=1;" vertex="1" parent="1">
          <mxGeometry x="290" y="230" width="120" height="60" as="geometry" />
        </mxCell>
        <mxCell id="EFzE8TT-wfRA_M-12pq5-2" value="" style="endArrow=none;html=1;rounded=0;entryX=1;entryY=0.5;entryDx=0;entryDy=0;exitX=0;exitY=0.5;exitDx=0;exitDy=0;" edge="1" parent="1" source="BIQeDoIDryCZM2HBSt0U-2" target="EFzE8TT-wfRA_M-12pq5-1">
          <mxGeometry width="50" height="50" relative="1" as="geometry">
            <mxPoint x="530" y="260" as="sourcePoint" />
            <mxPoint x="450" y="200" as="targetPoint" />
          </mxGeometry>
        </mxCell>
        <mxCell id="EFzE8TT-wfRA_M-12pq5-4" value="Tiene" style="text;html=1;align=center;verticalAlign=middle;resizable=0;points=[];autosize=1;strokeColor=none;fillColor=none;" vertex="1" parent="1">
          <mxGeometry x="450" y="230" width="50" height="30" as="geometry" />
        </mxCell>
        <mxCell id="EFzE8TT-wfRA_M-12pq5-5" value="" style="endArrow=classic;html=1;rounded=0;entryX=0.32;entryY=-0.133;entryDx=0;entryDy=0;entryPerimeter=0;" edge="1" parent="1">
          <mxGeometry width="50" height="50" relative="1" as="geometry">
            <mxPoint x="491" y="229" as="sourcePoint" />
            <mxPoint x="456" y="229.01" as="targetPoint" />
          </mxGeometry>
        </mxCell>
        <mxCell id="EFzE8TT-wfRA_M-12pq5-6" value="&lt;font style=&quot;font-size: 14px;&quot;&gt;1...*&lt;/font&gt;" style="text;html=1;align=center;verticalAlign=middle;resizable=0;points=[];autosize=1;strokeColor=none;fillColor=none;" vertex="1" parent="1">
          <mxGeometry x="404" y="233" width="50" height="30" as="geometry" />
        </mxCell>
        <mxCell id="EFzE8TT-wfRA_M-12pq5-7" value="pertenece" style="text;html=1;align=center;verticalAlign=middle;resizable=0;points=[];autosize=1;strokeColor=none;fillColor=none;" vertex="1" parent="1">
          <mxGeometry x="435" y="260" width="80" height="30" as="geometry" />
        </mxCell>
        <mxCell id="EFzE8TT-wfRA_M-12pq5-8" value="&lt;font style=&quot;font-size: 14px;&quot;&gt;1&lt;/font&gt;" style="text;html=1;align=center;verticalAlign=middle;resizable=0;points=[];autosize=1;strokeColor=none;fillColor=none;" vertex="1" parent="1">
          <mxGeometry x="510" y="260" width="30" height="30" as="geometry" />
        </mxCell>
        <mxCell id="EFzE8TT-wfRA_M-12pq5-9" value="" style="endArrow=classic;html=1;rounded=0;" edge="1" parent="1">
          <mxGeometry width="50" height="50" relative="1" as="geometry">
            <mxPoint x="457.5" y="290" as="sourcePoint" />
            <mxPoint x="492.5" y="290" as="targetPoint" />
          </mxGeometry>
        </mxCell>
        <mxCell id="EFzE8TT-wfRA_M-12pq5-11" style="edgeStyle=orthogonalEdgeStyle;rounded=0;orthogonalLoop=1;jettySize=auto;html=1;exitX=1;exitY=0.5;exitDx=0;exitDy=0;" edge="1" parent="1" source="EFzE8TT-wfRA_M-12pq5-10" target="EFzE8TT-wfRA_M-12pq5-1">
          <mxGeometry relative="1" as="geometry" />
        </mxCell>
        <mxCell id="EFzE8TT-wfRA_M-12pq5-10" value="Zona" style="rounded=0;whiteSpace=wrap;html=1;fillColor=#f8cecc;strokeColor=#b85450;" vertex="1" parent="1">
          <mxGeometry x="60" y="230" width="120" height="60" as="geometry" />
        </mxCell>
        <mxCell id="EFzE8TT-wfRA_M-12pq5-12" value="está" style="text;html=1;align=center;verticalAlign=middle;resizable=0;points=[];autosize=1;strokeColor=none;fillColor=none;" vertex="1" parent="1">
          <mxGeometry x="208" y="229" width="50" height="30" as="geometry" />
        </mxCell>
        <mxCell id="EFzE8TT-wfRA_M-12pq5-13" value="" style="endArrow=classic;html=1;rounded=0;entryX=0.32;entryY=-0.133;entryDx=0;entryDy=0;entryPerimeter=0;" edge="1" parent="1">
          <mxGeometry width="50" height="50" relative="1" as="geometry">
            <mxPoint x="250.5" y="229" as="sourcePoint" />
            <mxPoint x="215.5" y="229.01" as="targetPoint" />
          </mxGeometry>
        </mxCell>
        <mxCell id="EFzE8TT-wfRA_M-12pq5-14" value="&lt;font style=&quot;font-size: 14px;&quot;&gt;1&lt;/font&gt;" style="text;html=1;align=center;verticalAlign=middle;resizable=0;points=[];autosize=1;strokeColor=none;fillColor=none;" vertex="1" parent="1">
          <mxGeometry x="178" y="232" width="30" height="30" as="geometry" />
        </mxCell>
        <mxCell id="EFzE8TT-wfRA_M-12pq5-15" value="hay" style="text;html=1;align=center;verticalAlign=middle;resizable=0;points=[];autosize=1;strokeColor=none;fillColor=none;" vertex="1" parent="1">
          <mxGeometry x="211" y="259" width="40" height="30" as="geometry" />
        </mxCell>
        <mxCell id="EFzE8TT-wfRA_M-12pq5-16" value="&lt;font style=&quot;font-size: 14px;&quot;&gt;1&lt;/font&gt;" style="text;html=1;align=center;verticalAlign=middle;resizable=0;points=[];autosize=1;strokeColor=none;fillColor=none;" vertex="1" parent="1">
          <mxGeometry x="286" y="260" width="30" height="30" as="geometry" />
        </mxCell>
        <mxCell id="EFzE8TT-wfRA_M-12pq5-17" value="" style="endArrow=classic;html=1;rounded=0;" edge="1" parent="1">
          <mxGeometry width="50" height="50" relative="1" as="geometry">
            <mxPoint x="215.5" y="288" as="sourcePoint" />
            <mxPoint x="250.5" y="288" as="targetPoint" />
          </mxGeometry>
        </mxCell>
        <mxCell id="EFzE8TT-wfRA_M-12pq5-18" value="&lt;font style=&quot;font-size: 14px;&quot;&gt;0...*&lt;/font&gt;" style="text;html=1;align=center;verticalAlign=middle;resizable=0;points=[];autosize=1;strokeColor=none;fillColor=none;" vertex="1" parent="1">
          <mxGeometry x="246" y="270" width="50" height="30" as="geometry" />
        </mxCell>
      </root>
    </mxGraphModel>
  </diagram>
</mxfile>
